{"title":"Revenge of the Green Dragons 2014 1080p BluRay x264 ROVERS DUAL","uid":12204381,"size":8348218137,"categoryP":"video","categoryS":"hd___movies","magnet":"?xt=urn:btih:89d673cbdf568f8090467e5ddea5c046a6858ecf&amp;dn=Revenge+of+the+Green+Dragons+2014+1080p+BluRay+x264+ROVERS+DUAL&amp;tr=udp%3A%2F%2Ftracker.openbittorrent.com%3A80&amp;tr=udp%3A%2F%2Fopen.demonii.com%3A1337&amp;tr=udp%3A%2F%2Ftracker.coppersurfer.tk%3A6969&amp;tr=udp%3A%2F%2Fexodus.desync.com%3A6969","seeders":0,"leechers":0,"uploader":"Alemao99","files":5,"time":1438896022,"description":"The 1980s in New York is scheduled to fight gangs, violence and large betrayals. Sonny (Justin Chon) and Steven (Kevin Wu) are schoolmates and best friends. It's 1983, they join the gang Green Dragons in Chinatown. Both grow rapidly in the world of crime, calling the unexpected attention of city police.\n\nTitle in Brazil: The Laws of Crime\nOriginal title: Revenge of the Green Dragons\nRelease Date: 2014\nGenre: Crime / Action / Drama\nDuration: 94 min\nDirected by Wai-keung Lau, Andrew Loo\nIMDb: http://www.imdb.com/title/tt1396523/\n\nSize: 7.95 GB\nExtension Archive: .MKV\nVideo Quality: Bluray\nVideo codec: H.264 / AVC\nAudio codec: AC3 2.0 / DTS 5.1\nResolution: 1920 x 800\nAudio: Portuguese / English\nSubtitles: Portuguese\n\nFormat                                   : Matroska\nFormat version                           : Version 4 / Version 2\nFile size                                : 7.77 GiB\nDuration                                 : 1h 34mn\nOverall bit rate                         : 11.7 Mbps\nMovie name                               : As.Leis.do.Crime.2015.1080p.BluRay.x264.ROVERS.DUAL-BRENYS\nEncoded date                             : UTC 2015-07-31 16:21:32\nWriting application                      : mkvmerge v7.2.0 ('On Every Street') 32bit built on Sep 13 2014 15:42:11\nWriting library                          : libebml v1.3.0 + libmatroska v1.4.1\nDURATION                                 : 01:34:14.112000000\nNUMBER_OF_FRAMES                         : 176691\nNUMBER_OF_BYTES                          : 135698688\n_STATISTICS_WRITING_APP                  : mkvmerge v7.2.0 ('On Every Street') 32bit built on Sep 13 2014 15:42:11\n_STATISTICS_WRITING_DATE_UTC             : 2015-07-31 16:21:32\n_STATISTICS_TAGS                         : BPS DURATION NUMBER_OF_FRAMES NUMBER_OF_BYTES\n\nVideo\nID                                       : 1\nFormat                                   : AVC\nFormat/Info                              : Advanced Video Codec\nFormat profile                           : &lt;a class=&quot;__cf_email__&quot; href=&quot;/cdn-cgi/l/email-protection&quot; data-cfemail=&quot;9cd4f5fbf4dcd0a8b2ad&quot;&gt;[email&amp;#160;protected]&lt;/a&gt;&lt;script data-cfhash='f9e31' type=&quot;text/javascript&quot;&gt;\n/* &lt;![CDATA[ */!function(){try{var t=&quot;currentScript&quot;in document?document.currentScript:function(){for(var t=document.getElementsByTagName(&quot;script&quot;),e=t.length;e--;)if(t[e].getAttribute(&quot;data-cfhash&quot;))return t[e]}();if(t&amp;&amp;t.previousSibling){var e,r,n,i,c=t.previousSibling,a=c.getAttribute(&quot;data-cfemail&quot;);if(a){for(e=&quot;&quot;,r=parseInt(a.substr(0,2),16),n=2;a.length-n;n+=2)i=parseInt(a.substr(n,2),16)^r,e+=String.fromCharCode(i);e=document.createTextNode(e),c.parentNode.replaceChild(e,c)}t.parentNode.removeChild(t);}}catch(u){}}()/* ]]&gt; */&lt;/script&gt;\nFormat settings, CABAC                   : Yes\nFormat settings, ReFrames                : 5 frames\nCodec ID                                 : V_MPEG4/ISO/AVC\nDuration                                 : 1h 34mn\nBit rate                                 : 10.0 Mbps\nWidth                                    : 1 920 pixels\nHeight                                   : 800 pixels\nDisplay aspect ratio                     : 2.40:1\nFrame rate                               : 23.976 fps\nColor space                              : YUV\nChroma subsampling                       : 4:2:0\nBit depth                                : 8 bits\nScan type                                : Progressive\nBits/(Pixel*Frame)                       : 0.273\nStream size                              : 6.49 GiB (84%)\nTitle                                    : As.Leis.do.Crime.2015.1080p.BluRay.x264.ROVERS.DUAL-BRENYS\nWriting library                          : x264 core 142 r2479 dd79a61\nEncoding settings                        : cabac=1 / ref=5 / deblock=1:0:0 / analyse=0x3:0x133 / me=umh / subme=7 / psy=1 / psy_rd=1.00:0.00 / mixed_ref=1 / me_range=16 / chroma_me=1 / trellis=1 / 8x8dct=1 / cqm=0 / deadzone=21,11 / fast_pskip=0 / chroma_qp_offset=-2 / threads=18 / lookahead_threads=3 / sliced_threads=0 / nr=0 / decimate=1 / interlaced=0 / bluray_compat=0 / constrained_intra=0 / bframes=3 / b_pyramid=2 / b_adapt=1 / b_bias=0 / direct=1 / weightb=1 / open_gop=0 / weightp=2 / keyint=250 / keyint_min=23 / scenecut=40 / intra_refresh=0 / rc_lookahead=40 / rc=2pass / mbtree=1 / bitrate=10036 / ratetol=1.0 / qcomp=0.60 / qpmin=0 / qpmax=69 / qpstep=4 / cplxblur=20.0 / qblur=0.5 / ip_ratio=1.40 / aq=1:1.00\nDefault                                  : Yes\nForced                                   : No\nDURATION                                 : 01:34:50.486000000\nNUMBER_OF_FRAMES                         : 136435\nNUMBER_OF_BYTES                          : 7137065711\n_STATISTICS_WRITING_APP                  : mkvmerge v7.2.0 ('On Every Street') 32bit built on Sep 13 2014 15:42:11\n_STATISTICS_WRITING_DATE_UTC             : 2015-07-31 16:21:32\n_STATISTICS_TAGS                         : BPS DURATION NUMBER_OF_FRAMES NUMBER_OF_BYTES\n\nAudio #1\nID                                       : 2\nFormat                                   : AC-3\nFormat/Info                              : Audio Coding 3\nMode extension                           : CM (complete main)\nFormat settings, Endianness              : Big\nCodec ID                                 : A_AC3\nDuration                                 : 1h 34mn\nBit rate mode                            : Constant\nBit rate                                 : 192 Kbps\nChannel(s)                               : 2 channels\nChannel positions                        : Front: L R\nSampling rate                            : 48.0 KHz\nBit depth                                : 16 bits\nCompression mode                         : Lossy\nStream size                              : 130 MiB (2%)\nTitle                                    : Portugues AC3 -BRENYS\nLanguage                                 : Portuguese\nDefault                                  : Yes\nForced                                   : No\n\nAudio #2\nID                                       : 3\nFormat                                   : DTS\nFormat/Info                              : Digital Theater Systems\nCodec ID                                 : A_DTS\nDuration                                 : 1h 34mn\nBit rate mode                            : Constant\nBit rate                                 : 1 510 Kbps\nChannel(s)                               : 6 channels\nChannel positions                        : Front: L C R, Side: L R, LFE\nSampling rate                            : 48.0 KHz\nBit depth                                : 24 bits\nCompression mode                         : Lossy\nStream size                              : 1.00 GiB (13%)\nLanguage                                 : English\nDefault                                  : No\nForced                                   : No\n\n\nSEED PLEASE\n\nENJOY","torrent":{"xt":"urn:btih:89d673cbdf568f8090467e5ddea5c046a6858ecf","amp;dn":"Revenge+of+the+Green+Dragons+2014+1080p+BluRay+x264+ROVERS+DUAL","amp;tr":["udp%3A%2F%2Ftracker.openbittorrent.com%3A80","udp%3A%2F%2Fopen.demonii.com%3A1337","udp%3A%2F%2Ftracker.coppersurfer.tk%3A6969","udp%3A%2F%2Fexodus.desync.com%3A6969"],"infoHash":"89d673cbdf568f8090467e5ddea5c046a6858ecf","infoHashBuffer":{"type":"Buffer","data":[137,214,115,203,223,86,143,128,144,70,126,93,222,165,192,70,166,133,142,207]},"announce":[],"urlList":[]}}